# xmcd
#
# Track frame offsets: 
#        150
#        27835
#        45663
#        63599
#        91591
#        106864
#        121920
#        154558
#        161453
#        190078
#        237499
#        269617
#        282525
#        314933
#
# Disc length: 4623 seconds
#
# Revision: 0
# Processed by: cddbd v1.5.2PL0 Copyright (c) Steve Scherf et al.
# Submitted via: ExactAudioCopy v0.99pb4
#
DISCID=c0120d0e
DTITLE=Various Artist - Tacet: The Best 2010
DYEAR=2010
DGENRE=Classical
TTITLE0=Beethoven:Symphony No.2 in D major op.36 Mov.4 Allegro molto
TTITLE1=Chopin:Etudes op.10,8 - op.10,5
TTITLE2=Strauss:Egyptischer Marsch op.335
TTITLE3=Haydn:String Quartet op.1 no.0,Hob.II:6 in E flat major Mov.3 
TTITLE3=Adagio
TTITLE4=Chopin:Mazurka op.67 No.4 in a minor
TTITLE5=Schumann:Six Studies for the Pedal Piano op.56 No.2 Avec beauc
TTITLE5=oup d'expression(Arranged for two piano by Debussy)
TTITLE6=Louis Spohr:Nonet in F major op.31 Mov.2 Scherzo Allergo
TTITLE7=Hugo Wolf:Morike-Lieder
TTITLE8=Schubert:Octet in F major D803 op.posth.166 Mov.3 Allegro viva
TTITLE8=ce
TTITLE9=Beethoven:Sonata C major op.53""Waldstein""Mov.1 Allegro con b
TTITLE9=rio
TTITLE10=Haydn:String Quartet op.76 no.3,Hob.III:77 in C major Mov.2
TTITLE11=Bach:Praeludium C major BWV 870
TTITLE12=Brahms:String Quartet in A minor op.502 Mov.4 Finale Allegro 
TTITLE12=non assai
TTITLE13=Schumann:Piano Quartet in E flat major op.47 Mov.3 Andante Ca
TTITLE13=ntabile
EXTD=
EXTT0=
EXTT1=
EXTT2=
EXTT3=
EXTT4=
EXTT5=
EXTT6=
EXTT7=
EXTT8=
EXTT9=
EXTT10=
EXTT11=
EXTT12=
EXTT13=
PLAYORDER=
